<?xml version="1.0" encoding="iso-8859-1"?>
<!-- Generator: Adobe Illustrator 19.0.0, SVG Export Plug-In . SVG Version: 6.00 Build 0)  -->
<svg version="1.1" id="Layer_1" xmlns="http://www.w3.org/2000/svg" xmlns:xlink="http://www.w3.org/1999/xlink" x="0px" y="0px"
	 viewBox="0 0 512 512" style="enable-background:new 0 0 512 512;" xml:space="preserve">
<g>
	<g>
		<path d="M343.426,374.939c-1.118-5.243-6.54-8.336-11.607-6.647l-19.108,6.367l-8.867-26.608
			c-1.603-4.808-6.798-7.406-11.607-5.805l-2.127,0.709l-29.942-89.847c13.063-8.982,19.621-26.034,14.168-42.398
			c-1.453-4.358-5.519-7.102-9.874-7.082c-1.271,18.026-14.539,32.851-32.26,36.133l-23.43,4.332
			c6.955,9.754,18.558,16.055,31.728,15.534l29.952,89.878l-2.126,0.709c-4.808,1.602-7.407,6.798-5.805,11.607l8.867,26.609
			l-2.662,0.886c-1.137-2.377-2.658-4.617-4.616-6.595l-81.532-82.418c-3.167-3.202-7.166-5.457-11.545-6.514
			c0,0-92.319-18.564-100.474-20.089c7.898-0.352,63.557-2.835,71.746-3.2h0.002l2.674-15.139
			c-10.143,1.067-26.505-5.983-32.172-15.831c-4.625-8.034-36.325-63.117-40.575-70.499l57.371,60.833
			c4.717,4.867,11.594,7.018,18.17,5.8c0.002,0,0.003,0,0.006-0.001l80.896-14.958c11.615-2.15,19.037-13.854,15.717-25.433
			c-2.812-9.821-12.739-16.178-23.074-14.266l-68.66,12.724l-53.434-55.133l59.84,36.414c0.656-2.941,0.226-0.678,2.357-12.745
			c2.714-15.371-7.545-30.033-22.916-32.748l-49.633-8.766c-15.371-2.715-30.033,7.545-32.748,22.917
			c-1.1,6.224-24.33,137.76-25.389,143.759l0.03-0.017c-1.674,12.178,6.123,23.88,18.327,26.822l103.888,25.042l76.685,77.52
			c6.652,6.725,16.655,9.046,25.767,5.616c5.166,8.137,11.321,16.175,17.899,23.403c10.401-10.337,24.074-17.386,39.319-19.405
			c7.826-13.736,19.514-24.697,33.379-31.692C345.601,387.79,344.736,381.086,343.426,374.939z"/>
	</g>
</g>
<g>
	<g>
		<path d="M481.107,500.263c-5.08-17.924-21.449-30.537-40.014-30.966c1.879-33.84-25.159-62.418-59.057-62.418
			c-25.609,0-47.848,16.3-55.923,39.858c-32.095-2.956-58.165,26.188-51.275,57.936c0.908,4.185,4.611,7.17,8.893,7.17h188.623
			C478.392,511.845,482.751,506.061,481.107,500.263z"/>
	</g>
</g>
<g>
	<g>
		<path d="M137.938,399.031l-5.855-45.997L81.624,340.31l7.6,59.711l-24.428,80.733c-3.874,12.805,3.365,26.327,16.17,30.203
			c12.815,3.876,26.331-3.376,30.203-16.17l25.925-85.68C138.081,405.844,138.368,402.411,137.938,399.031z"/>
	</g>
</g>
<g>
	<g>
		<path d="M196.613,20.719c-1.25-3.592-7.095-5.307-16.144-5.307c-7.555,0-17.36,1.211-28.563,3.51
			c-3.23-4.54-7.232-8.376-11.76-11.38c-11.326-7.514-25.905-9.841-39.732-5.029c-13.817,4.81-23.795,15.676-28.012,28.586
			c-1.689,5.172-2.447,10.67-2.16,16.243C47.798,58.671,34.018,69.926,36.313,76.518c1.249,3.592,7.095,5.307,16.143,5.307
			c15.997,0,41.998-5.365,70.273-15.207C166.995,51.209,200.075,30.659,196.613,20.719z"/>
	</g>
</g>
<g>
	<g>
		<path d="M202.546,70.528c-0.612-3.138-3.656-5.187-6.791-4.574l-30.56,5.962c0.02-2.608-0.194-5.178-0.645-7.685
			c-11.223,5.418-23.927,10.647-37.322,15.309c-14.173,4.934-28.151,8.881-40.857,11.618c5.827,11.022,16.489,19.342,29.717,21.678
			c20.981,3.706,41.058-8.925,47.211-28.754l34.673-6.764C201.111,76.707,203.158,73.667,202.546,70.528z"/>
	</g>
</g>
<g>
</g>
<g>
</g>
<g>
</g>
<g>
</g>
<g>
</g>
<g>
</g>
<g>
</g>
<g>
</g>
<g>
</g>
<g>
</g>
<g>
</g>
<g>
</g>
<g>
</g>
<g>
</g>
<g>
</g>
</svg>
