<svg version="1.1" xmlns="http://www.w3.org/2000/svg" xmlns:xlink="http://www.w3.org/1999/xlink" x="0px" y="0px" viewBox="0 0 200 200" xml:space="preserve">
  <g>
    <path
    d="M17.9,189.7h164.1c9.9,0,17.9-8.1,17.9-17.9V28.2c0-9.9-8.1-17.9-17.9-17.9H17.9C8.1,10.3,0,18.3,0,28.2v143.6
    C0,181.7,8.1,189.7,17.9,189.7z M17.9,15.4h164.1c7.1,0,12.8,5.7,12.8,12.8V41H5.1V28.2C5.1,21.1,10.9,15.4,17.9,15.4z M5.1,46.2
    h189.7v125.6c0,7.1-5.7,12.8-12.8,12.8H17.9c-7.1,0-12.8-5.7-12.8-12.8V46.2z"/>
    <circle cx="23.1" cy="28.2" r="5.1"/>
    <circle cx="43.6" cy="28.2" r="5.1"/>
    <circle cx="64.1" cy="28.2" r="5.1"/>
    <path d="M74.4,130.8c2.8,0,5.1-3.4,5.1-7.7c0-2.4-0.8-4.6-1.9-6l-8.2,4.1c-0.1,0.6-0.2,1.2-0.2,1.9
    C69.2,127.3,71.5,130.8,74.4,130.8z"/>
    <path d="M125.6,130.8c2.8,0,5.1-3.4,5.1-7.7c0-0.7-0.1-1.3-0.2-1.9l-8.2-4.1c-1.2,1.4-1.9,3.5-1.9,6
    C120.5,127.3,122.8,130.8,125.6,130.8z"/>
    <path
      d="M69.2,148.7c1.4,0,2.1,0.6,3.3,1.8c1.4,1.4,3.3,3.3,6.9,3.3c3.6,0,5.5-1.9,6.9-3.3c1.3-1.3,1.9-1.8,3.3-1.8
    c1.4,0,2.1,0.6,3.3,1.8c1.4,1.4,3.3,3.3,6.9,3.3s5.5-1.9,6.9-3.3c1.3-1.3,1.9-1.8,3.3-1.8c1.4,0,2.1,0.6,3.3,1.8
    c1.4,1.4,3.3,3.3,6.9,3.3c3.6,0,5.5-1.9,6.9-3.3c1.3-1.3,1.9-1.8,3.3-1.8c1.4,0,2.6-1.1,2.6-2.6c0-1.4-1.1-2.6-2.6-2.6
    c-3.6,0-5.5,1.9-6.9,3.3c-1.3,1.3-1.9,1.8-3.3,1.8c-1.4,0-2.1-0.6-3.3-1.8c-1.4-1.4-3.3-3.3-6.9-3.3s-5.5,1.9-6.9,3.3
    c-1.3,1.3-1.9,1.8-3.3,1.8c-1.4,0-2.1-0.6-3.3-1.8c-1.4-1.4-3.3-3.3-6.9-3.3s-5.5,1.9-6.9,3.3c-1.3,1.3-1.9,1.8-3.3,1.8
    c-1.4,0-2.1-0.6-3.3-1.8c-1.4-1.4-3.3-3.3-6.9-3.3c-1.4,0-2.6,1.1-2.6,2.6C66.7,147.6,67.8,148.7,69.2,148.7z"/>
  </g>
</svg>
