<?xml version="1.0" encoding="iso-8859-1"?>
	<svg version="1.1" class="plant-svg" xmlns="http://www.w3.org/2000/svg" xmlns:xlink="http://www.w3.org/1999/xlink"
		 viewBox="0 0 512 512" style="enable-background:new 0 0 512 512;" xml:space="preserve">
	<path style="fill:#66AD66;" d="M256,0c0,0-38.997,134.889-37.168,203.312c2.474,92.5,18.202,97.59,18.202,97.59h37.931
		c0,0,15.729-5.089,18.202-97.59C294.997,134.889,256,0,256,0z"/>
	<path style="fill:#5E9E5E;" d="M256,0l-2.136,300.902h21.102c0,0,15.729-5.089,18.202-97.59C294.997,134.889,256,0,256,0z"/>
	<path style="fill:#9CD38C;" d="M336.214,300.902c-38.36-113.97,17.968-271.188,17.968-271.188s-46.97,40.082-85.116,118.866
		c-24.465,50.53-18.416,113.586-10.931,152.322L336.214,300.902L336.214,300.902z"/>
	<path style="fill:#80C56E;" d="M336.214,300.902c-38.36-113.97,17.968-271.188,17.968-271.188s-103.373,138.57-63.157,271.188
		H336.214z"/>
	<path style="fill:#9CD38C;" d="M175.786,300.902c38.36-113.97-17.968-271.188-17.968-271.188s46.971,40.082,85.116,118.866
		c24.465,50.53,18.416,113.586,10.931,152.322L175.786,300.902L175.786,300.902z"/>
	<path style="fill:#80C56E;" d="M227.334,300.902c24.215-100.188-69.517-271.188-69.517-271.188s46.971,40.082,85.116,118.866
		c24.465,50.53,18.416,113.586,10.931,152.322L227.334,300.902L227.334,300.902z"/>
	<path style="fill:#9CD38C;" d="M352.991,300.902c4.755-64.213,79.2-114.629,79.2-114.629s-60.978,7.286-103.746,41.951
		c-29.795,24.149-40.858,61.658-43.566,72.677h68.112V300.902z"/>
	<g>
		<path style="fill:#80C56E;" d="M352.991,300.902c4.755-64.213,79.2-114.629,79.2-114.629s-84.505,24.914-117.725,114.629H352.991z"
			/>
		<path style="fill:#80C56E;" d="M159.221,300.902c-4.755-64.213-79.2-114.629-79.2-114.629s60.978,7.286,103.746,41.951
			c29.795,24.149,40.858,61.658,43.566,72.677h-68.112V300.902z"/>
	</g>
	<path style="fill:#9CD38C;" d="M159.221,300.902c-4.755-64.213-79.2-114.629-79.2-114.629s88.851,26.802,117.513,114.629H159.221z"
		/>
	<path style="fill:#66AD66;" d="M326.769,144.332c-60.146,42.87-85.156,137.987-89.554,156.57h77.25
		C324.459,173.816,449.04,86.751,449.04,86.751S393.592,96.703,326.769,144.332z"/>
	<path style="fill:#5E9E5E;" d="M274.2,300.902h40.266C324.459,173.816,449.04,86.751,449.04,86.751S311.109,146.168,274.2,300.902z"
		/>
	<path style="fill:#66AD66;" d="M185.231,144.332c60.146,42.87,85.156,137.987,89.554,156.57h-77.25
		C187.541,173.816,62.96,86.751,62.96,86.751S118.408,96.703,185.231,144.332z"/>
	<path style="fill:#5E9E5E;" d="M185.231,144.332c60.146,42.87,85.156,137.987,89.554,156.57h-37.751
		C223.347,146.168,62.96,86.751,62.96,86.751S118.408,96.703,185.231,144.332z"/>
	<path style="fill:#FEC37D;" d="M317.534,512h-123.28c-7.55,0-14.115-5.177-15.876-12.518l-46.76-194.932h248.553l-46.76,194.932
		C331.649,506.823,325.084,512,317.534,512z"/>
	<path style="fill:#F9AE5D;" d="M330.772,304.549l-46.76,194.932c-1.761,7.342-8.326,12.518-15.876,12.518h49.398
		c7.55,0,14.115-5.177,15.876-12.518l46.76-194.932H330.772z"/>
	<path style="fill:#F2A559;" d="M396.891,330.191H114.897c-3.582,0-6.486-2.904-6.486-6.486V298.93c0-3.582,2.904-6.486,6.486-6.486
		h281.994c3.582,0,6.486,2.904,6.486,6.486v24.775C403.376,327.287,400.473,330.191,396.891,330.191z"/>
	<path style="fill:#EA8F3D;" d="M396.891,292.445h-46.654v37.746h46.654c3.582,0,6.486-2.904,6.486-6.486V298.93
		C403.376,295.349,400.473,292.445,396.891,292.445z"/>
	<polygon style="fill:#F2A559;" points="360.508,386.52 364.214,371.067 147.574,371.067 151.28,386.52 "/>
	<polygon style="fill:#EA8F3D;" points="311.109,386.52 360.508,386.52 361.301,383.212 364.214,371.067 314.816,371.067 "/>
</svg>
