<?xml version="1.0" encoding="iso-8859-1"?>
<!-- Generator: Adobe Illustrator 19.0.0, SVG Export Plug-In . SVG Version: 6.00 Build 0)  -->
<svg version="1.1" id="Capa_1" xmlns="http://www.w3.org/2000/svg" xmlns:xlink="http://www.w3.org/1999/xlink" x="0px" y="0px"
	 viewBox="0 0 512 512" style="enable-background:new 0 0 512 512;" xml:space="preserve">
<g>
	<polygon style="fill:#BF7643;" points="447.507,512 415.596,499.141 383.689,512 351.781,499.141 319.875,512 287.97,499.141 
		256.068,512 224.167,499.141 192.261,512 160.356,499.141 128.452,512 96.549,499.141 65.008,511.855 64.282,511.853 
		44.027,503.689 56.283,440.372 455.879,440.372 467.973,503.753 	"/>
	<polygon style="fill:#BF7643;" points="447.507,0 415.596,12.859 383.689,0 351.781,12.859 319.875,0 287.97,12.859 256.068,0 
		224.167,12.859 192.261,0 160.356,12.859 128.452,0 96.549,12.859 65.008,0.145 64.282,0.147 44.027,8.311 56.283,71.628 
		455.879,71.628 467.973,8.247 	"/>
</g>
<path style="fill:#DB976A;" d="M458.55,56.02L458.55,56.02L458.55,56.02H53.45c0,0-15.946,63.339-15.946,202.417
	c0,134.248,15.946,197.585,15.946,197.585h405.1l0,0l0,0c0.003-0.01,15.946-63.348,15.946-197.584
	C474.496,119.37,458.553,56.031,458.55,56.02z"/>
<path style="fill:#CE824E;" d="M53.45,456.022c6.57,0,13.14,0,19.711,0c110.475,0,220.95,0,331.424,0c17.988,0,35.977,0,53.965,0
	c0,0,0.007-0.029,0.027-0.111c0.011-0.043,0.024-0.099,0.041-0.17c0.008-0.034,0.014-0.058,0.024-0.098
	c0.026-0.108,0.056-0.236,0.093-0.391c0.006-0.024,0.012-0.051,0.018-0.076c0.033-0.14,0.069-0.298,0.109-0.472
	c0.013-0.057,0.026-0.114,0.04-0.174c0.042-0.183,0.087-0.382,0.135-0.599c0.01-0.046,0.019-0.085,0.03-0.132
	c0.077-0.344,0.153-0.689,0.227-1.034c0.083-0.383,0.165-0.765,0.246-1.148c0.163-0.772,0.344-1.646,0.541-2.623
	c0.017-0.083,0.034-0.169,0.051-0.254c0.087-0.433,0.176-0.886,0.269-1.358c0.017-0.086,0.033-0.168,0.05-0.255
	c0.121-0.62,0.24-1.241,0.358-1.862c0.136-0.719,0.27-1.438,0.402-2.158c0.11-0.598,0.222-1.214,0.336-1.854
	c0.012-0.069,0.024-0.135,0.037-0.205c0.13-0.728,0.263-1.483,0.398-2.265c0.016-0.092,0.032-0.187,0.048-0.28
	c0.119-0.687,0.239-1.396,0.362-2.123c0.026-0.153,0.051-0.305,0.077-0.459c4.722-28.241,12.026-86.611,12.026-177.479
	c0-139.066-15.943-202.406-15.946-202.417c-17.12,0-34.24,0-51.361,0c-0.868,0-1.736,0-2.604,0
	c0.003,0.01,15.946,63.35,15.946,202.416c0,49.185-2.14,88.85-4.853,119.37c-2.794,31.438-29.097,55.55-60.659,55.55
	c-101.97,0-203.94,0-305.911,0c0.929,5.73,1.774,10.36,2.467,13.905C52.721,453.126,53.45,456.022,53.45,456.022z"/>
<path style="fill:#FFFFFF;" d="M361.036,381.33H151.772c-11.431,0-20.698-9.267-20.698-20.698V151.368
	c0-11.431,9.267-20.698,20.698-20.698h209.264c11.431,0,20.698,9.267,20.698,20.698v209.264
	C381.734,372.063,372.467,381.33,361.036,381.33z"/>
<path style="fill:#F4F3F2;" d="M361.036,130.67h-52.044c11.431,0,20.698,9.267,20.698,20.698v209.264
	c0,11.431-9.267,20.698-20.698,20.698h52.044c11.431,0,20.698-9.267,20.698-20.698V151.368
	C381.734,139.937,372.467,130.67,361.036,130.67z"/>
<path style="fill:#80C56E;" d="M174.195,191.289c0,0,10.09,77.679,56.181,115.621c53.381,43.943,90.24,4.913,90.24,4.913
	s31.221-43.672-22.16-87.615C252.366,186.266,174.195,191.289,174.195,191.289z"/>
<path style="fill:#66AD66;" d="M298.456,224.207c-46.09-37.942-124.261-32.919-124.261-32.919l0,0
	c10.573,3.665,103.176,61.277,146.421,120.533C320.616,311.822,351.837,268.15,298.456,224.207z"/>
<g>
</g>
<g>
</g>
<g>
</g>
<g>
</g>
<g>
</g>
<g>
</g>
<g>
</g>
<g>
</g>
<g>
</g>
<g>
</g>
<g>
</g>
<g>
</g>
<g>
</g>
<g>
</g>
<g>
</g>
</svg>
