<?xml version="1.0" encoding="iso-8859-1"?>
<!-- Generator: Adobe Illustrator 19.0.0, SVG Export Plug-In . SVG Version: 6.00 Build 0)  -->
<svg version="1.1" id="Capa_1" xmlns="http://www.w3.org/2000/svg" xmlns:xlink="http://www.w3.org/1999/xlink" x="0px" y="0px"
	 viewBox="0 0 512 512" style="enable-background:new 0 0 512 512;" xml:space="preserve">
<path style="fill:#E0E0E2;" d="M307.919,265.555l-103.934-0.051c-27.999-0.014-50.685-22.722-50.671-50.721l0.044-88.968
	c0.012-23.449,9.378-45.925,26.023-62.443l54.754-54.336C246.284-3.02,265.886-3.01,278.023,9.058l54.7,54.39
	c16.628,16.534,25.973,39.019,25.961,62.468l-0.044,88.968C358.626,242.882,335.918,265.568,307.919,265.555z"/>
<path style="fill:#D1D1D3;" d="M358.677,125.646L358.677,125.646c-0.06-23.351-9.39-45.727-25.954-62.198l-54.7-54.39
	c-5.861-5.828-13.463-8.835-21.126-9.038c20.142,32.051,49.553,85.728,49.553,125.897l-0.044,88.968
	c0,0.146-0.001,0.292-0.002,0.438c-0.182,20.328-16.962,36.605-37.29,36.595l-65.128-0.032
	c-27.909-0.014-50.534-22.579-50.664-50.454l-0.007,13.351c-0.014,27.998,22.672,50.707,50.671,50.721l103.934,0.052
	c27.999,0.014,50.707-22.672,50.721-50.671l0.044-88.968C358.684,125.826,358.678,125.736,358.677,125.646z"/>
<path style="fill:#C6C5CA;" d="M271.8,336.125l-31.767-0.016l0.035-71.227l8.43-58.381c1.248-8.643,13.725-8.637,14.964,0.007
	l8.372,58.389L271.8,336.125z"/>
<path style="fill:#A7AEEE;" d="M274.779,364.591l-37.753-0.019c-2.522-0.001-4.566-2.047-4.565-4.569l0.014-31.61
	c0.001-2.523,2.047-4.567,4.57-4.565l37.753,0.019c2.522,0.001,4.566,2.047,4.565,4.569l-0.014,31.61
	C279.348,362.548,277.302,364.592,274.779,364.591z"/>
<path style="fill:#8C99E5;" d="M274.798,323.846l-18.892-0.009v40.744l18.873,0.009c2.523,0.001,4.569-2.043,4.57-4.565
	l0.014-31.609C279.364,325.893,277.32,323.846,274.798,323.846z"/>
<path style="fill:#D18754;" d="M279.913,348.622l-48.005-0.024c-4.132-0.002-7.484,3.346-7.486,7.479L224.361,480.5
	c-0.009,17.389,14.081,31.492,31.469,31.5l0,0c17.389,0.009,31.492-14.081,31.5-31.469l0.062-124.422
	C287.394,351.976,284.046,348.625,279.913,348.622z M265.042,486.492c-4.995,4.995-13.092,4.995-18.087,0
	c-4.994-4.994-4.994-13.092,0-18.087c4.995-4.994,13.092-4.994,18.087,0C270.037,473.4,270.037,481.497,265.042,486.492z"/>
<path style="fill:#BC723F;" d="M279.913,348.622l-24.043-0.012v116.055c3.316-0.033,6.642,1.21,9.172,3.74
	c4.995,4.995,4.995,13.092,0,18.087c-2.53,2.53-5.856,3.773-9.172,3.74v21.767c17.37-0.013,31.451-14.093,31.46-31.468
	l0.062-124.422C287.394,351.976,284.046,348.625,279.913,348.622z"/>
<g>
</g>
<g>
</g>
<g>
</g>
<g>
</g>
<g>
</g>
<g>
</g>
<g>
</g>
<g>
</g>
<g>
</g>
<g>
</g>
<g>
</g>
<g>
</g>
<g>
</g>
<g>
</g>
<g>
</g>
</svg>
