<?xml version="1.0" encoding="iso-8859-1"?>
<!-- Generator: Adobe Illustrator 19.0.0, SVG Export Plug-In . SVG Version: 6.00 Build 0)  -->
<svg version="1.1" id="Capa_1" xmlns="http://www.w3.org/2000/svg" xmlns:xlink="http://www.w3.org/1999/xlink" x="0px" y="0px"
	 viewBox="0 0 512.001 512.001" style="enable-background:new 0 0 512.001 512.001;" xml:space="preserve">
<path style="fill:#EF4246;" d="M128.728,32.749h49.688V5.658h-49.688c-2.293,0-4.152,1.859-4.152,4.152v18.788
	C124.576,30.891,126.435,32.749,128.728,32.749z"/>
<rect x="229.9" y="81.56" style="fill:#E0E0E2;" width="49.11" height="54.54"/>
<rect x="254.46" y="81.56" style="fill:#C6C5CA;" width="24.554" height="54.54"/>
<polygon style="fill:#EF4246;" points="165.561,28.387 142.683,126.124 157.353,126.124 201.713,33.213 "/>
<path style="fill:#FC5759;" d="M311.528,44.864l-26.812,38.615c-1.25,1.801-3.304,2.875-5.496,2.875h-49.998
	c-2.818,0-5.334-1.766-6.292-4.417l-9.398-26.003c-2.613-9.431-11.196-15.96-20.982-15.96H161.4c-3.137,0-5.679-2.543-5.679-5.679
	V5.679c0-3.137,2.543-5.679,5.679-5.679h136.357c9.138,0,16.545,7.408,16.545,16.545v17.807
	C314.303,38.037,313.347,41.659,311.528,44.864z"/>
<path style="fill:#D2E7F7;" d="M317.333,188.223L317.333,188.223c-14.041-11.694-26.274-29.022-26.274-47.294v-8.173h-70.117v8.174
	c0,18.272-12.234,35.6-26.274,47.294l0,0c-47.206,39.317-74.514,97.568-74.539,159.003c-0.023,55.962-0.036,115.348-0.036,115.348
	c0,27.297,22.129,49.426,49.426,49.426h172.964c27.297,0,49.426-22.129,49.426-49.426c0,0-0.013-59.386-0.036-115.348
	C391.847,285.79,364.539,227.54,317.333,188.223z"/>
<path style="fill:#BAD7F2;" d="M391.872,347.225c-0.025-61.435-27.333-119.686-74.54-159.003l0,0
	c-14.04-11.694-26.274-29.022-26.274-47.294v-8.173h-34.803l0,0v8.173c0,5.208,1.233,11.808,2.996,18.584
	c4.952,19.033,15.055,36.261,28.663,50.459c35.632,37.176,51.644,83.654,51.666,137.463c0.015,35.83,0.025,86.423,0.031,118.137
	c0.002,13.714-11.114,24.824-24.827,24.824H169.518c-27.228,0-49.309-22.017-49.421-49.219c-0.003,13.186-0.005,21.397-0.005,21.397
	c0,27.297,22.129,49.426,49.426,49.426H290.19h52.292c27.297,0,49.426-22.129,49.426-49.426v-0.043
	C391.908,462.486,391.888,385.505,391.872,347.225z"/>
<path style="fill:#C6C5CA;" d="M298.526,148.76h-84.474c-3.316,0-6.005-2.688-6.005-6.005v-20.001c0-3.316,2.688-6.005,6.005-6.005
	h84.474c3.316,0,6.005,2.688,6.005,6.005v20.001C304.531,146.072,301.843,148.76,298.526,148.76z"/>
<g>
	<path style="fill:#FEC37D;" d="M242.738,33.95h26.523c4.262,0,7.716-3.455,7.716-7.716s-3.454-7.716-7.716-7.716h-26.523
		c-4.262,0-7.716,3.455-7.716,7.716S238.477,33.95,242.738,33.95z"/>
	<path style="fill:#FEC37D;" d="M269.262,43.209h-26.523c-4.262,0-7.716,3.455-7.716,7.716s3.454,7.716,7.716,7.716h26.523
		c4.262,0,7.716-3.455,7.716-7.716S273.523,43.209,269.262,43.209z"/>
</g>
<circle style="fill:#FFFFFF;" cx="256.29" cy="352.86" r="83.33"/>
<path style="fill:#B4DBF3;" d="M256.289,303.623c0,0-31.862,32.388-31.862,60.247c0,17.597,14.265,31.862,31.862,31.862
	s31.862-14.265,31.862-31.862C288.151,336.011,256.289,303.623,256.289,303.623z"/>
<path style="fill:#ACABB1;" d="M298.527,116.75h-44.07v32.01h44.07c3.316,0,6.005-2.688,6.005-6.005v-20.001
	C304.531,119.438,301.843,116.75,298.527,116.75z"/>
<g>
</g>
<g>
</g>
<g>
</g>
<g>
</g>
<g>
</g>
<g>
</g>
<g>
</g>
<g>
</g>
<g>
</g>
<g>
</g>
<g>
</g>
<g>
</g>
<g>
</g>
<g>
</g>
<g>
</g>
</svg>
