<?xml version="1.0" encoding="iso-8859-1"?>
<!-- Generator: Adobe Illustrator 19.0.0, SVG Export Plug-In . SVG Version: 6.00 Build 0)  -->
<svg version="1.1" id="Capa_1" xmlns="http://www.w3.org/2000/svg" xmlns:xlink="http://www.w3.org/1999/xlink" x="0px" y="0px"
	 viewBox="0 0 512 512" style="enable-background:new 0 0 512 512;" xml:space="preserve">
<g>
	<path style="fill:#FEDD61;" d="M291.012,35.012c0,19.337-15.675,197.852-35.012,197.852S220.988,54.348,220.988,35.012
		S236.663,0,256,0S291.012,15.675,291.012,35.012z"/>
	<path style="fill:#FEDD61;" d="M220.988,476.988c0-19.337,15.675-197.852,35.012-197.852s35.012,178.516,35.012,197.852
		S275.337,512,256,512S220.988,496.325,220.988,476.988z"/>
	<path style="fill:#FEDD61;" d="M437.019,124.495c-13.673,13.673-150.987,128.818-164.66,115.145
		C258.686,225.967,373.831,88.653,387.504,74.98s35.841-13.673,49.514,0C450.692,88.654,450.692,110.822,437.019,124.495z"/>
	<path style="fill:#FEDD61;" d="M74.981,387.505c13.673-13.673,150.987-128.818,164.66-115.145S138.169,423.347,124.496,437.02
		s-35.841,13.673-49.514,0C61.308,423.346,61.308,401.178,74.981,387.505z"/>
	<path style="fill:#FEDD61;" d="M476.988,291.012c-19.337,0-197.852-15.675-197.852-35.012s178.516-35.012,197.852-35.012
		S512,236.663,512,256S496.325,291.012,476.988,291.012z"/>
	<path style="fill:#FEDD61;" d="M35.012,220.988c19.337,0,197.852,15.675,197.852,35.012S54.348,291.012,35.012,291.012
		S0,275.337,0,256S15.675,220.988,35.012,220.988z"/>
	<path style="fill:#FEDD61;" d="M387.505,437.019c-13.673-13.673-128.818-150.987-115.145-164.66s150.987,101.472,164.66,115.145
		s13.673,35.841,0,49.514C423.346,450.692,401.178,450.692,387.505,437.019z"/>
	<path style="fill:#FEDD61;" d="M124.495,74.981c13.673,13.673,128.818,150.987,115.145,164.66
		C225.967,253.314,88.653,138.169,74.98,124.496s-13.673-35.841,0-49.514S110.822,61.308,124.495,74.981z"/>
</g>
<g>
	<path style="fill:#FFC931;" d="M371.951,64.644c-7.309,17.902-89.303,177.246-107.205,169.936
		c-17.902-7.309,35.067-178.505,42.377-196.406c7.31-17.902,27.747-26.489,45.649-19.179S379.26,46.742,371.951,64.644z"/>
	<path style="fill:#FFC931;" d="M140.049,447.356c7.309-17.902,89.303-177.246,107.205-169.936s-35.067,178.505-42.377,196.406
		c-7.309,17.902-27.747,26.488-45.649,19.179C141.327,485.695,132.74,465.258,140.049,447.356z"/>
	<path style="fill:#FFC931;" d="M473.298,202.681c-17.827,7.49-188.479,62.185-195.969,44.358s151.018-101.425,168.845-108.915
		s38.35,0.89,45.84,18.717S491.125,195.191,473.298,202.681z"/>
	<path style="fill:#FFC931;" d="M38.702,309.319c17.827-7.49,188.479-62.185,195.969-44.358S83.652,366.387,65.825,373.877
		s-38.35-0.89-45.84-18.717S20.875,316.809,38.702,309.319z"/>
	<path style="fill:#FFC931;" d="M447.356,371.951c-17.902-7.309-177.246-89.303-169.936-107.205s178.505,35.067,196.406,42.377
		c17.902,7.31,26.488,27.747,19.179,45.649C485.695,370.673,465.258,379.26,447.356,371.951z"/>
	<path style="fill:#FFC931;" d="M64.644,140.049c17.902,7.309,177.246,89.303,169.936,107.205
		c-7.309,17.902-178.505-35.067-196.406-42.377c-17.902-7.309-26.489-27.747-19.179-45.649S46.742,132.74,64.644,140.049z"/>
	<path style="fill:#FFC931;" d="M309.319,473.298c-7.49-17.827-62.185-188.479-44.358-195.969s101.425,151.018,108.915,168.845
		c7.49,17.827-0.89,38.35-18.717,45.84S316.809,491.125,309.319,473.298z"/>
	<path style="fill:#FFC931;" d="M202.681,38.702c7.49,17.827,62.185,188.479,44.358,195.969S145.613,83.652,138.123,65.825
		s0.89-38.35,18.717-45.84S195.191,20.875,202.681,38.702z"/>
</g>
<circle style="fill:#F99F3D;" cx="256" cy="256" r="94.01"/>
<g>
	<path style="fill:#FEC37D;" d="M264.183,232.176c-0.62,0-1.24-0.08-1.845-0.24c-3.854-1.015-6.164-4.977-5.15-8.832
		c0.836-3.174,3.709-5.39,6.988-5.39c0.62,0,1.24,0.08,1.845,0.239c3.854,1.016,6.164,4.978,5.15,8.833
		C270.335,229.96,267.462,232.176,264.183,232.176z"/>
	<path style="fill:#FEC37D;" d="M247.824,294.286c-0.62,0-1.24-0.08-1.845-0.239c-3.855-1.016-6.165-4.978-5.15-8.833
		c0.836-3.173,3.709-5.389,6.987-5.389c0.62,0,1.241,0.08,1.845,0.24c3.855,1.016,6.165,4.978,5.15,8.833
		C253.975,292.07,251.102,294.286,247.824,294.286z"/>
	<path style="fill:#FEC37D;" d="M287.059,271.411c-0.621,0-1.241-0.081-1.846-0.24c-1.867-0.492-3.432-1.682-4.403-3.35
		c-0.973-1.668-1.237-3.615-0.745-5.483c0.836-3.173,3.709-5.39,6.986-5.39c0.621,0,1.241,0.081,1.846,0.24
		c1.867,0.492,3.432,1.682,4.404,3.35c0.973,1.668,1.237,3.615,0.745,5.483C293.21,269.194,290.337,271.411,287.059,271.411z"/>
	<path style="fill:#FEC37D;" d="M224.949,255.052c-0.62,0-1.241-0.081-1.846-0.24c-3.855-1.015-6.164-4.977-5.15-8.832
		c0.837-3.174,3.71-5.39,6.987-5.39c0.62,0,1.241,0.081,1.846,0.24c3.855,1.015,6.164,4.977,5.149,8.832
		C231.1,252.835,228.227,255.052,224.949,255.052z"/>
	<path style="fill:#FEC37D;" d="M283.749,247.055c-2.565,0-4.961-1.375-6.252-3.59c-2.007-3.443-0.839-7.879,2.605-9.887
		c1.106-0.644,2.362-0.985,3.636-0.985c2.565,0,4.961,1.375,6.251,3.59c0.972,1.668,1.237,3.615,0.745,5.482
		c-0.492,1.868-1.682,3.432-3.35,4.404C286.279,246.715,285.022,247.055,283.749,247.055z"/>
	<path style="fill:#FEC37D;" d="M228.263,279.406c-2.565,0-4.961-1.375-6.251-3.59c-0.973-1.668-1.238-3.615-0.746-5.482
		s1.682-3.432,3.35-4.404c1.105-0.645,2.362-0.985,3.635-0.985c2.565,0,4.961,1.375,6.252,3.589c2.008,3.444,0.84,7.879-2.604,9.887
		C230.793,279.065,229.536,279.406,228.263,279.406z"/>
	<path style="fill:#FEC37D;" d="M272.181,290.974c-2.565,0-4.961-1.375-6.252-3.59c-0.972-1.668-1.237-3.615-0.745-5.482
		c0.492-1.868,1.682-3.432,3.35-4.404c1.106-0.644,2.362-0.985,3.636-0.985c2.565,0,4.961,1.375,6.252,3.59
		c2.007,3.444,0.839,7.879-2.605,9.886C274.711,290.633,273.455,290.974,272.181,290.974z"/>
	<path style="fill:#FEC37D;" d="M239.83,235.487c-2.565,0-4.961-1.375-6.252-3.589c-0.973-1.669-1.237-3.616-0.745-5.483
		c0.492-1.868,1.682-3.432,3.35-4.404c1.105-0.645,2.362-0.985,3.635-0.985c2.565,0,4.96,1.375,6.251,3.59
		c0.973,1.668,1.238,3.615,0.746,5.482c-0.492,1.868-1.682,3.432-3.35,4.404C242.361,235.147,241.104,235.487,239.83,235.487z"/>
	<circle style="fill:#FEC37D;" cx="256" cy="190.7" r="7.471"/>
	<circle style="fill:#FEC37D;" cx="256" cy="321.3" r="7.471"/>
	<circle style="fill:#FEC37D;" cx="321.3" cy="256" r="7.471"/>
	<circle style="fill:#FEC37D;" cx="190.7" cy="256" r="7.471"/>
	<circle style="fill:#FEC37D;" cx="302.18" cy="209.82" r="7.471"/>
	<circle style="fill:#FEC37D;" cx="209.82" cy="302.18" r="7.471"/>
	<circle style="fill:#FEC37D;" cx="302.18" cy="302.18" r="7.471"/>
	<circle style="fill:#FEC37D;" cx="209.82" cy="209.82" r="7.471"/>
	<circle style="fill:#FEC37D;" cx="280.35" cy="195.41" r="7.471"/>
	<circle style="fill:#FEC37D;" cx="231.65" cy="316.59" r="7.471"/>
	<circle style="fill:#FEC37D;" cx="316.59" cy="280.35" r="7.471"/>
	<circle style="fill:#FEC37D;" cx="195.41" cy="231.65" r="7.471"/>
	<circle style="fill:#FEC37D;" cx="316.06" cy="230.37" r="7.471"/>
	<circle style="fill:#FEC37D;" cx="195.94" cy="281.63" r="7.471"/>
	<circle style="fill:#FEC37D;" cx="281.63" cy="316.06" r="7.471"/>
	<circle style="fill:#FEC37D;" cx="230.37" cy="195.94" r="7.471"/>
</g>
<g>
</g>
<g>
</g>
<g>
</g>
<g>
</g>
<g>
</g>
<g>
</g>
<g>
</g>
<g>
</g>
<g>
</g>
<g>
</g>
<g>
</g>
<g>
</g>
<g>
</g>
<g>
</g>
<g>
</g>
</svg>
