<?xml version="1.0" encoding="iso-8859-1"?>
<!-- Generator: Adobe Illustrator 19.0.0, SVG Export Plug-In . SVG Version: 6.00 Build 0)  -->
<svg version="1.1" id="Capa_1" xmlns="http://www.w3.org/2000/svg" xmlns:xlink="http://www.w3.org/1999/xlink" x="0px" y="0px"
	 viewBox="0 0 511.999 511.999" style="enable-background:new 0 0 511.999 511.999;" xml:space="preserve">
<g>
	<path style="fill:#75B8DB;" d="M387.21,382.529c-0.332,0-0.667-0.022-1.006-0.066c-4.168-0.55-7.101-4.374-6.551-8.543
		c8.913-67.537,73.874-134.515,101.613-163.116c16.094-16.593,20.104-41.635,9.978-62.316
		c-6.814-13.915-19.267-24.333-34.168-28.581c-14.901-4.249-30.975-1.965-44.102,6.264l-50.155,31.396
		c-3.565,2.232-8.261,1.15-10.491-2.413c-2.231-3.563-1.15-8.26,2.413-10.491l50.151-31.394
		c16.773-10.515,37.317-13.432,56.359-8.003c19.043,5.43,34.958,18.744,43.665,36.528c12.941,26.429,7.828,58.422-12.722,79.61
		c-26.69,27.519-89.194,91.964-97.448,154.509C394.242,379.742,390.971,382.529,387.21,382.529z"/>
	<polygon style="fill:#75B8DB;" points="237.326,385.184 172.449,428.659 24.21,166.014 47.512,151.115 	"/>
</g>
<g>
	<path style="fill:#96CBEB;" d="M0.898,173.948l31.276,23.789c0.742,0.564,1.752,0.619,2.551,0.139l40.14-24.157
		c0.798-0.48,1.223-1.399,1.072-2.319l-6.376-38.774c-0.261-1.587-2.041-2.409-3.418-1.58L1.102,170.187
		C-0.276,171.016-0.382,172.974,0.898,173.948z"/>
	<path style="fill:#96CBEB;" d="M374.349,441.287H170.491c-15.946,0-28.249-14.032-26.165-29.841l40.629-308.143h174.93
		l40.629,308.143C402.599,427.254,390.295,441.287,374.349,441.287z"/>
</g>
<path style="fill:#75B8DB;" d="M400.514,411.446l-40.629-308.143h-49.306l39.518,293.6c1.306,9.704-6.241,18.335-16.032,18.335
	H170.491c-11.206,0-20.605-6.934-24.484-16.54l-1.681,12.749c-2.084,15.809,10.219,29.841,26.165,29.841h154.553h49.306
	C390.295,441.287,402.599,427.254,400.514,411.446z"/>
<path style="fill:#96CBEB;" d="M367.537,106.353H177.303c-7.458,0-13.505-6.046-13.505-13.505v-8.632
	c0-7.458,6.046-13.505,13.505-13.505h190.234c7.458,0,13.505,6.046,13.505,13.505v8.632
	C381.041,100.306,374.995,106.353,367.537,106.353z"/>
<path style="fill:#75B8DB;" d="M367.537,88.532H177.303c-5.843,0-10.804-3.717-12.686-8.91c-0.52,1.436-0.819,2.979-0.819,4.594
	v8.632c0,7.458,6.046,13.505,13.505,13.505h190.234c7.458,0,13.505-6.046,13.505-13.505v-8.632c0-1.616-0.298-3.158-0.819-4.594
	C378.341,84.814,373.379,88.532,367.537,88.532z"/>
<g>
	<polygon style="fill:#D3EAF8;" points="172.758,195.806 372.082,195.806 370.074,180.582 174.766,180.582 	"/>
	<polygon style="fill:#D3EAF8;" points="167.61,234.854 377.23,234.854 375.223,219.63 169.617,219.63 	"/>
</g>
<g>
	<polygon style="fill:#96CBEB;" points="370.074,180.582 320.981,180.582 323.03,195.806 372.082,195.806 	"/>
	<polygon style="fill:#96CBEB;" points="375.223,219.63 326.237,219.63 328.286,234.854 377.23,234.854 	"/>
</g>
<g>
</g>
<g>
</g>
<g>
</g>
<g>
</g>
<g>
</g>
<g>
</g>
<g>
</g>
<g>
</g>
<g>
</g>
<g>
</g>
<g>
</g>
<g>
</g>
<g>
</g>
<g>
</g>
<g>
</g>
</svg>
