<?xml version="1.0" encoding="utf-8"?>
<!-- Generator: Adobe Illustrator 22.1.0, SVG Export Plug-In . SVG Version: 6.00 Build 0)  -->
<svg version="1.1" id="Capa_1" xmlns="http://www.w3.org/2000/svg" xmlns:xlink="http://www.w3.org/1999/xlink" x="0px" y="0px"
	 viewBox="0 0 45.6 45.6" style="enable-background:new 0 0 45.6 45.6;" xml:space="preserve">
<g>
	<g>
		<circle cx="13.6" cy="4.5" r="4.5"/>
		<path d="M3.5,26.3v16.3c0,1.9,1.7,3.4,3.7,3c1.4-0.3,2.4-1.6,2.4-3.1V26.8l2.1-6.7l2.5,6.2c0.4,1,1.4,1.6,2.4,1.6
			c0.3,0,0.5-0.1,0.8-0.1l2.2,1.6l1,12.4c0,0.4,0.3,0.8,0.7,0.9c0.1,0,0.2,0,0.3,0c0.3,0,0.6-0.2,0.8-0.4l5.1-7.1l5.1,3.8
			c-0.2,0.6-0.4,1.2-0.4,1.8c0,2.5,2,4.5,4.5,4.5s4.5-2,4.5-4.5s-2-4.5-4.5-4.5c-1.1,0-2.1,0.4-2.9,1.1l-0.1-0.1c0,0,0,0,0,0
			l-0.8-0.6c1.2,0,2.4-0.3,3.5-1l5.2-3.7c0.9-0.6,0.6-2-0.5-2.3l-18.4-4.2c-0.6-0.1-1.2,0.2-1.5,0.7l-0.7,1.5l-1.7-1.2
			c0.2-0.6,0.3-1.3,0-1.9c0,0-5-12.3-5.2-12.6c-0.5-1-1.1-1.9-2.4-2.1c-1.5-0.3-3,0.8-3.5,2.2L3.6,25.5C3.6,25.7,3.5,26,3.5,26.3z
			 M34.6,40.3l1.6,1.2c0.4,0.3,1.1,0.2,1.4-0.2l0,0c0.3-0.4,0.2-1.1-0.2-1.4l-1.6-1.2c0.3-0.1,0.6-0.2,0.9-0.2c1.2,0,2.1,1,2.1,2.1
			c0,1.2-1,2.1-2.1,2.1c-1.2,0-2.1-1-2.1-2.1C34.6,40.5,34.6,40.4,34.6,40.3z M21.7,30.8l4.1,3l-3.5,4.9L21.7,30.8z"/>
	</g>
</g>
</svg>
